<!--colored-->
<!-- <svg version="1.1" id="Capa_1" xmlns="http://www.w3.org/2000/svg" xmlns:xlink="http://www.w3.org/1999/xlink" x="0px" y="0px"
	 viewBox="0 0 554.625 554.625" style="enable-background:new 0 0 554.625 554.625;"
	 xml:space="preserve">
	<g>
		<path d="M0,449.438c0,21.037,17.212,38.25,38.25,38.25h229.5V315.562l-61.2,61.2l-15.3-13.388l86.062-86.062l86.062,86.062
			l-15.3,15.3l-61.2-63.112v172.125h229.5c21.037,0,38.25-17.213,38.25-38.25V239.062H0V449.438z"/>
		<path d="M516.375,143.438h-229.5l-38.25-76.5H38.25C17.212,66.938,0,84.15,0,105.188v114.75h554.625v-38.25
			C554.625,160.65,537.412,143.438,516.375,143.438z"/>
	</g>
</svg> -->
<!--greyed-->
<svg version="1.1" id="Capa_1" xmlns="http://www.w3.org/2000/svg" xmlns:xlink="http://www.w3.org/1999/xlink" x="0px" y="0px"
	 viewBox="0 0 60 60" style="enable-background:new 0 0 60 60;" xml:space="preserve">
<g>
	<path d="M26.525,10.5l-4.712-6.582l-0.001-0.001L21.515,3.5H0v53h60v-46H26.525z M58,12.5v5H31.537l-3.579-5H58z M2,54.5v-49
		h18.485l5,7h0.012l4.69,6.551c0.195,0.272,0.502,0.417,0.813,0.418V19.5h27v35H2z"/>
	<polygon points="21.293,32.793 22.707,34.207 29,27.914 29,45.5 31,45.5 31,27.914 37.293,34.207 38.707,32.793 30,24.086 	"/>
</g>
</svg>
