<svg display="none" xmlns="http://www.w3.org/2000/svg" xmlns:xlink="http://www.w3.org/1999/xlink">
  <symbol id="icon-hexgrey" viewBox="0 0 32 32">
	<g>
		<path
		id="svg_1" 
		fill="#e1e1e1"
		stroke="null"  
		d="m0.291109,9.237598c0,-0.7 0.566698,-1.7 1.360076,-2l13.03406,-6.7c0.680038,-0.4 1.926774,-0.4 2.606812,0l12.920721,6.7c0.680038,0.4 1.360076,1.3 1.360076,2l0,13.5c0,0.7 -0.566698,1.7 -1.360076,2l-13.03406,6.7c-0.680038,0.4 -1.926774,0.4 -2.606812,0l-12.920721,-6.7c-0.680038,-0.4 -1.360076,-1.3 -1.360076,-2l0,-13.5l0,0z" 
		/>
		<path 
		id="bg-light"
		fill="#ffffff" 
		stroke="null" 
		enable-background="new" 
		opacity="0.2" 
		d="m31.584867,8.2c0,0 0,-0.1 -0.114629,-0.2c-0.114629,-0.1 -0.114629,-0.2 -0.229258,-0.3c-0.229258,-0.2 -0.229258,-0.2 -0.229258,-0.2c-0.114629,-0.1 -0.229258,-0.2 -0.343887,-0.2c-0.114629,0 -13.182353,-6.7 -13.182353,-6.7s-0.229258,-0.1 -0.458517,-0.2c-0.229258,-0.1 -0.343887,-0.1 -0.458517,-0.1s-0.343887,0 -0.458517,0s-0.458517,0 -0.573146,0s-0.229258,0 -0.229258,0.1l-0.114629,0l-0.229258,0.1l-0.114629,0l-12.723836,6.5c0,0 -0.573146,0.3 -0.802404,0.5c-0.114629,0 -0.229258,0.1 -0.229258,0.2c-0.114629,0.1 -0.229258,0.2 -0.343887,0.3c0,0 -0.114629,0.1 -0.114629,0.2c0,0.1 -0.114629,0.2 -0.114629,0.2c0,0.1 -0.114629,0.3 -0.114629,0.3s0,0.2 -0.114629,0.2l0,0.1l0,0.1l0,0.1l0,13.6l0,0.2c0,0 0,0.1 0,0.2l0,0.1l0,0.1l0,0.1l0,0.1l0.114629,0.1c0.114629,0.1 31.17913,-15.5 31.17913,-15.5z" 
		/>
	</g>
  </symbol>
</svg>