<svg display="none" xmlns="http://www.w3.org/2000/svg" xmlns:xlink="http://www.w3.org/1999/xlink">
  <symbol id="icon-hexbluelight" viewBox="0 0 32 32">
	<g>
		<path 
		id="svg_1" 
		stroke="null" 
		fill="#2a8bdb" 
		d="m0.415912,9.3c0,-0.7 0.564437,-1.7 1.35465,-2l12.98206,-6.7c0.677325,-0.4 1.919087,-0.4 2.596412,0l12.869172,6.7c0.677325,0.4 1.35465,1.3 1.35465,2l0,13.5c0,0.7 -0.564437,1.7 -1.35465,2l-12.98206,6.7c-0.677325,0.4 -1.919087,0.4 -2.596412,0l-12.869172,-6.7c-0.677325,-0.4 -1.35465,-1.3 -1.35465,-2l0,-13.5l0,0z" 
		/>
		<path
		id="bg-light"
		stroke="null" 
		enable-background="new" 
		fill="#ffffff" 
		opacity="0.2" 
		d="m31.460063,8.2c0,0 0,-0.1 -0.113715,-0.2c-0.113715,-0.1 -0.113715,-0.2 -0.22743,-0.3c-0.22743,-0.2 -0.22743,-0.2 -0.22743,-0.2c-0.113715,-0.1 -0.22743,-0.2 -0.341144,-0.2c-0.113715,0 -13.077206,-6.7 -13.077206,-6.7s-0.22743,-0.1 -0.454859,-0.2c-0.22743,-0.1 -0.341144,-0.1 -0.454859,-0.1s-0.341144,0 -0.454859,0s-0.454859,0 -0.568574,0s-0.22743,0 -0.22743,0.1l-0.113715,0l-0.22743,0.1l-0.113715,0l-12.622346,6.5c0,0 -0.568574,0.3 -0.796004,0.5c-0.113715,0 -0.22743,0.1 -0.22743,0.2c-0.113715,0.1 -0.22743,0.2 -0.341144,0.3c0,0 -0.113715,0.1 -0.113715,0.2c0,0.1 -0.113715,0.2 -0.113715,0.2c0,0.1 -0.113715,0.3 -0.113715,0.3s0,0.2 -0.113715,0.2l0,0.1l0,0.1l0,0.1l0,13.6l0,0.2c0,0 0,0.1 0,0.2l0,0.1l0,0.1l0,0.1l0,0.1l0.113715,0.1c0.113715,0.1 30.930435,-15.5 30.930435,-15.5z" 
		/>
	</g>
  </symbol>
</svg>