
<svg  xmlns="http://www.w3.org/2000/svg"
 width="26" height="32" viewBox="0 0 227.000000 222.000000"
fill="none" 
stroke="currentColor" 
stroke-width="10" 
stroke-linecap="round" 
stroke-linejoin="round"
>

<g transform="translate(0.000000,222.000000) scale(0.100000,-0.100000)">
<path d="M1050 2197 c-89 -30 -152 -69 -214 -132 -155 -158 -189 -391 -87
-593 l30 -59 -150 -149 c-83 -82 -258 -260 -390 -396 -218 -225 -239 -249
-239 -281 0 -71 74 -116 136 -84 l29 15 86 -83 c47 -46 97 -87 112 -90 37 -10
85 12 102 46 25 48 19 76 -30 128 l-44 47 54 54 54 53 45 -41 c38 -35 52 -42
86 -42 57 0 90 34 90 91 0 39 -6 47 -87 130 l-86 89 176 179 c117 119 184 195
201 229 14 28 40 67 57 87 l31 35 -50 55 c-188 205 -58 532 219 553 79 5 146
-14 217 -62 36 -25 53 -31 72 -25 14 4 60 7 103 8 77 1 78 1 66 24 -7 12 -42
52 -78 88 -69 69 -156 118 -241 138 -78 18 -198 13 -270 -12z"/>
<path d="M1497 1820 c-104 -27 -208 -105 -255 -195 -25 -47 -27 -59 -30 -216
l-4 -167 -72 -4 c-92 -4 -143 -36 -181 -111 -25 -50 -25 -55 -25 -284 0 -274
11 -345 72 -473 57 -120 177 -239 298 -298 125 -61 191 -75 330 -70 191 8 322
69 458 212 49 52 83 99 111 157 62 125 71 184 71 465 0 237 0 241 -25 291 -38
76 -89 107 -181 111 l-74 4 0 153 c0 167 -9 208 -58 276 -41 55 -108 105 -172
130 -62 24 -202 34 -263 19z m228 -214 c68 -40 75 -62 75 -226 l0 -140 -201 0
-200 0 3 150 3 150 36 35 c48 49 99 66 176 61 44 -2 75 -11 108 -30z m-42
-764 c25 -25 30 -39 30 -77 0 -38 -5 -51 -33 -80 l-33 -34 33 -80 c18 -45 30
-88 26 -96 -4 -12 -24 -15 -94 -15 -121 0 -125 5 -84 110 l31 79 -34 34 c-30
30 -35 42 -35 82 0 40 5 52 35 82 33 33 39 35 81 30 34 -3 55 -13 77 -35z"/>
</g>
</svg>
